#Comment line ignore any data following # character 
#Hierarchical Translation and Rotation (.htr) file 
[Header]	
#Header keywords are followed by a single value 
FileType HTR		#Single word string
DataType HTRS		#Translation followed by rotation and scale data
FileVersion 1		#integer
NumSegments 84		#integer
NumFrames 2		#integer
DataFrameRate 30		#integer, data frame rate in this file
EulerRotationOrder ZYX
CalibrationUnits mm
RotationUnits Degrees
GlobalAxisofGravity Y
BoneLengthAxis Y
ScaleFactor 1.00
[SegmentNames&Hierarchy]
#CHILD	PARENT
MASTER GLOBAL
root MASTER
chest root
L_mid_tent01 root
R_mid_tent01 root
spine01 root
Bip01_Neck chest
L_humerus chest
R_humerus chest
weapon_bone chest
Bip01_Head Bip01_Neck
eye_left_bone Bip01_Head
eye_right_bone Bip01_Head
L_forearm L_humerus
L_front_hand L_forearm
L_weapon_bone L_forearm
L_front_hand01_01 L_front_hand
L_front_hand02_01 L_front_hand
L_front_hand03_01 L_front_hand
L_front_hand01_02 L_front_hand01_01
L_front_hand02_02 L_front_hand02_01
L_front_hand03_02 L_front_hand03_01
R_forearm R_humerus
R_front_hand R_forearm
R_weapon_bone R_forearm
R_front_hand01_01 R_front_hand
R_front_hand02_01 R_front_hand
R_front_hand03_01 R_front_hand
R_front_hand01_02 R_front_hand01_01
R_front_hand02_02 R_front_hand02_01
R_front_hand03_02 R_front_hand03_01
null_rope01_connect L_mid_tent01
Rope1_Seg01 null_rope01_connect
Rope1_Seg02 Rope1_Seg01
Rope1_Seg03 Rope1_Seg02
Rope1_Seg04 Rope1_Seg03
Rope1_Seg05 Rope1_Seg04
Rope1_Seg06 Rope1_Seg05
Rope1_Seg07 Rope1_Seg06
Rope1_Seg09 Rope1_Seg07
L_mid_hand01 Rope1_Seg09
L_mid_hand02 Rope1_Seg09
L_mid_hand03 Rope1_Seg09
null_rope02_connect R_mid_tent01
Rope2_Seg01 null_rope02_connect
Rope2_Seg02 Rope2_Seg01
Rope2_Seg03 Rope2_Seg02
Rope2_Seg04 Rope2_Seg03
Rope2_Seg05 Rope2_Seg04
Rope2_Seg06 Rope2_Seg05
Rope2_Seg07 Rope2_Seg06
Rope2_Seg09 Rope2_Seg07
R_mid_hand01 Rope2_Seg09
R_mid_hand02 Rope2_Seg09
R_mid_hand03 Rope2_Seg09
spine02 spine01
spine03 spine02
pelvis spine03
null_rope03_connect pelvis
null_rope04_connect pelvis
Rope3_Seg01 null_rope03_connect
Rope3_Seg02 Rope3_Seg01
Rope3_Seg03 Rope3_Seg02
Rope3_Seg04 Rope3_Seg03
Rope3_Seg05 Rope3_Seg04
Rope3_Seg06 Rope3_Seg05
Rope3_Seg07 Rope3_Seg06
Rope3_Seg08 Rope3_Seg07
Rope3_Seg09 Rope3_Seg08
R_rear_hand01 Rope3_Seg09
R_rear_hand02 Rope3_Seg09
R_rear_hand03 Rope3_Seg09
Rope4_Seg01 null_rope04_connect
Rope4_Seg02 Rope4_Seg01
Rope4_Seg03 Rope4_Seg02
Rope4_Seg04 Rope4_Seg03
Rope4_Seg05 Rope4_Seg04
Rope4_Seg06 Rope4_Seg05
Rope4_Seg07 Rope4_Seg06
Rope4_Seg08 Rope4_Seg07
Rope4_Seg09 Rope4_Seg08
L_rear_hand01 Rope4_Seg09
L_rear_hand02 Rope4_Seg09
L_rear_hand03 Rope4_Seg09
[BasePosition]
#SegmentName Tx, Ty, Tz, Rx, Ry, Rz, BoneLength
MASTER 0.000000 0.000000 0.000000 -90.000000 0.000000 0.000000 10.000000 
root 0.000000 0.000000 0.000000 0.000000 0.000000 0.000000 10.000000 
chest 0.000000 0.000000 0.000000 0.000000 0.000000 0.000000 10.000000 
L_mid_tent01 0.000000 0.000000 0.000000 0.000000 0.000000 0.000000 10.000000 
R_mid_tent01 0.000000 0.000000 0.000000 0.000000 0.000000 0.000000 10.000000 
spine01 0.000000 0.000000 0.000000 0.000000 0.000000 0.000000 10.000000 
Bip01_Neck 0.000000 0.000000 0.000000 0.000000 0.000000 0.000000 10.000000 
L_humerus 0.000000 0.000000 0.000000 0.000000 0.000000 0.000000 10.000000 
R_humerus 0.000000 0.000000 0.000000 0.000000 0.000000 0.000000 10.000000 
weapon_bone 0.000000 0.000000 0.000000 0.000000 0.000000 0.000000 10.000000 
Bip01_Head 0.000000 0.000000 0.000000 0.000000 0.000000 0.000000 10.000000 
eye_left_bone 0.000000 0.000000 0.000000 0.000000 0.000000 0.000000 10.000000 
eye_right_bone 0.000000 0.000000 0.000000 0.000000 0.000000 0.000000 10.000000 
L_forearm 0.000000 0.000000 0.000000 0.000000 0.000000 0.000000 10.000000 
L_front_hand 0.000000 0.000000 0.000000 0.000000 0.000000 0.000000 10.000000 
L_weapon_bone 0.000000 0.000000 0.000000 0.000000 0.000000 0.000000 10.000000 
L_front_hand01_01 0.000000 0.000000 0.000000 0.000000 0.000000 0.000000 10.000000 
L_front_hand02_01 0.000000 0.000000 0.000000 0.000000 0.000000 0.000000 10.000000 
L_front_hand03_01 0.000000 0.000000 0.000000 0.000000 0.000000 0.000000 10.000000 
L_front_hand01_02 0.000000 0.000000 0.000000 0.000000 0.000000 0.000000 10.000000 
L_front_hand02_02 0.000000 0.000000 0.000000 0.000000 0.000000 0.000000 10.000000 
L_front_hand03_02 0.000000 0.000000 0.000000 0.000000 0.000000 0.000000 10.000000 
R_forearm 0.000000 0.000000 0.000000 0.000000 0.000000 0.000000 10.000000 
R_front_hand 0.000000 0.000000 0.000000 0.000000 0.000000 0.000000 10.000000 
R_weapon_bone 0.000000 0.000000 0.000000 0.000000 0.000000 0.000000 10.000000 
R_front_hand01_01 0.000000 0.000000 0.000000 0.000000 0.000000 0.000000 10.000000 
R_front_hand02_01 0.000000 0.000000 0.000000 0.000000 0.000000 0.000000 10.000000 
R_front_hand03_01 0.000000 0.000000 0.000000 0.000000 0.000000 0.000000 10.000000 
R_front_hand01_02 0.000000 0.000000 0.000000 0.000000 0.000000 0.000000 10.000000 
R_front_hand02_02 0.000000 0.000000 0.000000 0.000000 0.000000 0.000000 10.000000 
R_front_hand03_02 0.000000 0.000000 0.000000 0.000000 0.000000 0.000000 10.000000 
null_rope01_connect 0.000000 0.000000 0.000000 0.000000 0.000000 0.000000 10.000000 
Rope1_Seg01 0.000000 0.000000 0.000000 0.000000 0.000000 0.000000 10.000000 
Rope1_Seg02 0.000000 0.000000 0.000000 0.000000 0.000000 0.000000 10.000000 
Rope1_Seg03 0.000000 0.000000 0.000000 0.000000 0.000000 0.000000 10.000000 
Rope1_Seg04 0.000000 0.000000 0.000000 0.000000 0.000000 0.000000 10.000000 
Rope1_Seg05 0.000000 0.000000 0.000000 0.000000 0.000000 0.000000 10.000000 
Rope1_Seg06 0.000000 0.000000 0.000000 0.000000 0.000000 0.000000 10.000000 
Rope1_Seg07 0.000000 0.000000 0.000000 0.000000 0.000000 0.000000 10.000000 
Rope1_Seg09 0.000000 0.000000 0.000000 0.000000 0.000000 0.000000 10.000000 
L_mid_hand01 0.000000 0.000000 0.000000 0.000000 0.000000 0.000000 10.000000 
L_mid_hand02 0.000000 0.000000 0.000000 0.000000 0.000000 0.000000 10.000000 
L_mid_hand03 0.000000 0.000000 0.000000 0.000000 0.000000 0.000000 10.000000 
null_rope02_connect 0.000000 0.000000 0.000000 0.000000 0.000000 0.000000 10.000000 
Rope2_Seg01 0.000000 0.000000 0.000000 0.000000 0.000000 0.000000 10.000000 
Rope2_Seg02 0.000000 0.000000 0.000000 0.000000 0.000000 0.000000 10.000000 
Rope2_Seg03 0.000000 0.000000 0.000000 0.000000 0.000000 0.000000 10.000000 
Rope2_Seg04 0.000000 0.000000 0.000000 0.000000 0.000000 0.000000 10.000000 
Rope2_Seg05 0.000000 0.000000 0.000000 0.000000 0.000000 0.000000 10.000000 
Rope2_Seg06 0.000000 0.000000 0.000000 0.000000 0.000000 0.000000 10.000000 
Rope2_Seg07 0.000000 0.000000 0.000000 0.000000 0.000000 0.000000 10.000000 
Rope2_Seg09 0.000000 0.000000 0.000000 0.000000 0.000000 0.000000 10.000000 
R_mid_hand01 0.000000 0.000000 0.000000 0.000000 0.000000 0.000000 10.000000 
R_mid_hand02 0.000000 0.000000 0.000000 0.000000 0.000000 0.000000 10.000000 
R_mid_hand03 0.000000 0.000000 0.000000 0.000000 0.000000 0.000000 10.000000 
spine02 0.000000 0.000000 0.000000 0.000000 0.000000 0.000000 10.000000 
spine03 0.000000 0.000000 0.000000 0.000000 0.000000 0.000000 10.000000 
pelvis 0.000000 0.000000 0.000000 0.000000 0.000000 0.000000 10.000000 
null_rope03_connect 0.000000 0.000000 0.000000 0.000000 0.000000 0.000000 10.000000 
null_rope04_connect 0.000000 0.000000 0.000000 0.000000 0.000000 0.000000 10.000000 
Rope3_Seg01 0.000000 0.000000 0.000000 0.000000 0.000000 0.000000 10.000000 
Rope3_Seg02 0.000000 0.000000 0.000000 0.000000 0.000000 0.000000 10.000000 
Rope3_Seg03 0.000000 0.000000 0.000000 0.000000 0.000000 0.000000 10.000000 
Rope3_Seg04 0.000000 0.000000 0.000000 0.000000 0.000000 0.000000 10.000000 
Rope3_Seg05 0.000000 0.000000 0.000000 0.000000 0.000000 0.000000 10.000000 
Rope3_Seg06 0.000000 0.000000 0.000000 0.000000 0.000000 0.000000 10.000000 
Rope3_Seg07 0.000000 0.000000 0.000000 0.000000 0.000000 0.000000 10.000000 
Rope3_Seg08 0.000000 0.000000 0.000000 0.000000 0.000000 0.000000 10.000000 
Rope3_Seg09 0.000000 0.000000 0.000000 0.000000 0.000000 0.000000 10.000000 
R_rear_hand01 0.000000 0.000000 0.000000 0.000000 0.000000 0.000000 10.000000 
R_rear_hand02 0.000000 0.000000 0.000000 0.000000 0.000000 0.000000 10.000000 
R_rear_hand03 0.000000 0.000000 0.000000 0.000000 0.000000 0.000000 10.000000 
Rope4_Seg01 0.000000 0.000000 0.000000 0.000000 0.000000 0.000000 10.000000 
Rope4_Seg02 0.000000 0.000000 0.000000 0.000000 0.000000 0.000000 10.000000 
Rope4_Seg03 0.000000 0.000000 0.000000 0.000000 0.000000 0.000000 10.000000 
Rope4_Seg04 0.000000 0.000000 0.000000 0.000000 0.000000 0.000000 10.000000 
Rope4_Seg05 0.000000 0.000000 0.000000 0.000000 0.000000 0.000000 10.000000 
Rope4_Seg06 0.000000 0.000000 0.000000 0.000000 0.000000 0.000000 10.000000 
Rope4_Seg07 0.000000 0.000000 0.000000 0.000000 0.000000 0.000000 10.000000 
Rope4_Seg08 0.000000 0.000000 0.000000 0.000000 0.000000 0.000000 10.000000 
Rope4_Seg09 0.000000 0.000000 0.000000 0.000000 0.000000 0.000000 10.000000 
L_rear_hand01 0.000000 0.000000 0.000000 0.000000 0.000000 0.000000 10.000000 
L_rear_hand02 0.000000 0.000000 0.000000 0.000000 0.000000 0.000000 10.000000 
L_rear_hand03 0.000000 0.000000 0.000000 0.000000 0.000000 0.000000 10.000000 
#Beginning of Data. Separated by tabs
#Fr	Tx	Ty	Tz	Rx	Ry	Rz	SF
[MASTER]
11 1757.001221 2752.157959 1632.493896 0.001660 0.001660 0.001660 3650.542725
12 1948.843262 2996.958496 1728.123413 0.001660 0.001660 0.001660 3970.662598
[root]
11 -29.992676 -28.744812 1482.583252 -116.041824 -15.204442 -103.458237 1483.165161
12 -31.772617 -32.596443 1487.103760 -117.462219 -15.790566 -104.279953 1487.800171
[chest]
11 -84.512650 -34.090519 0.000000 -13.496080 14.401961 149.281708 91.129311
12 -84.512650 -34.090519 0.000000 -14.578565 15.546520 148.016373 91.129311
[L_mid_tent01]
11 27.298651 22.179182 -249.918884 4.061720 6.243383 82.072708 252.381805
12 27.298607 22.179174 -249.918900 3.629244 11.186210 81.662651 252.381821
[R_mid_tent01]
11 23.228794 24.509907 226.238495 163.120483 0.736340 76.974709 228.744751
12 23.228794 24.509907 226.238495 163.263519 -6.171771 77.956596 228.744751
[spine01]
11 -0.361383 -0.195265 0.000000 0.002061 0.001124 32.802483 0.410763
12 -0.361383 -0.195265 0.000000 0.002060 0.001125 32.699398 0.410763
[Bip01_Neck]
11 165.484543 71.581718 0.000119 176.643677 -1.657967 43.431911 180.302734
12 165.484543 71.581718 0.000119 176.643677 -1.657967 43.431911 180.302734
[L_humerus]
11 -13.983130 -135.272980 -120.471481 -7.039400 63.862324 82.803917 181.680161
12 -13.983130 -135.272980 -120.471481 -7.070988 63.719852 82.769905 181.680161
[R_humerus]
11 -13.983309 -135.273102 125.287651 25.644770 -64.646278 70.079170 184.909012
12 -13.983309 -135.273102 125.287651 25.590258 -64.500420 70.137939 184.909012
[weapon_bone]
11 235.964890 -300.705902 0.000000 0.000000 -89.951546 -128.212341 382.234833
12 235.964890 -300.705902 0.000000 0.000000 -89.951546 -128.212341 382.234833
[Bip01_Head]
11 213.625793 185.209351 18.310623 4.971896 5.703756 -43.874699 283.326233
12 213.660263 185.113525 19.547729 4.967037 4.250798 -43.886795 283.372253
[eye_left_bone]
11 -24.626970 125.451866 -64.772606 0.000000 -90.000000 -99.840431 143.318359
12 -24.626970 125.451866 -64.772606 0.000000 -90.000000 -99.840431 143.318359
[eye_right_bone]
11 -24.626970 125.451866 64.327362 0.000000 -89.965736 80.156380 143.117676
12 -24.626970 125.451866 64.327362 0.000000 -89.965736 80.156380 143.117676
[L_forearm]
11 322.776093 0.000000 -0.000119 0.000430 -0.002308 -111.110794 322.776093
12 322.776093 0.000000 -0.000119 0.000431 -0.002307 -111.167755 322.776093
[L_front_hand]
11 241.149185 -0.042021 -3.300071 -178.667953 -1.835447 -27.422350 241.171753
12 241.149185 -0.042021 -3.300071 -178.667953 -1.835447 -27.422350 241.171753
[L_weapon_bone]
11 156.183838 0.000000 0.000000 0.000014 0.000007 0.000001 156.183838
12 156.183838 0.000000 0.000000 0.000014 0.000007 0.000001 156.183838
[L_front_hand01_01]
11 86.095154 20.947098 -0.655860 -0.282467 -0.528169 66.067474 88.609184
12 86.095154 20.947098 -0.655860 -0.274633 -0.532782 65.272827 88.609184
[L_front_hand02_01]
11 86.935165 -11.437475 24.513514 141.960785 -54.937954 -46.642345 91.046425
12 86.935165 -11.437475 24.513514 141.090271 -54.445614 -45.572052 91.046425
[L_front_hand03_01]
11 86.637497 -14.123976 -20.424902 -142.303543 53.163303 -48.671032 90.126129
12 86.637497 -14.123976 -20.424902 -141.476303 52.677540 -47.637543 90.126129
[L_front_hand01_02]
11 71.020905 -0.000179 0.000030 0.000315 -0.002326 -105.442802 71.020905
12 71.020905 -0.000179 0.000030 0.000315 -0.002326 -105.419182 71.020905
[L_front_hand02_02]
11 71.020927 -0.000119 0.000060 0.000315 -0.002326 -105.442802 71.020927
12 71.020927 -0.000119 0.000060 0.000315 -0.002326 -105.419182 71.020927
[L_front_hand03_02]
11 71.020905 -0.000060 0.000060 0.000315 -0.002326 -105.442802 71.020905
12 71.020905 -0.000060 0.000060 0.000315 -0.002326 -105.419182 71.020905
[R_forearm]
11 322.776428 -0.000060 0.000030 0.201102 0.068184 -109.782852 322.776428
12 322.776428 -0.000060 0.000030 0.201080 0.068247 -109.819138 322.776428
[R_front_hand]
11 238.847015 -0.006795 2.210259 -2.635298 -10.645461 -26.312506 238.857239
12 238.847015 -0.006795 2.210259 -2.635298 -10.645461 -26.312506 238.857239
[R_weapon_bone]
11 155.664093 0.002503 -0.000030 0.003487 0.001180 -90.988930 155.664078
12 155.664093 0.002503 -0.000030 0.003487 0.001180 -90.988930 155.664078
[R_front_hand01_01]
11 87.624611 14.231146 22.918642 -141.947067 -54.924736 46.726738 91.683487
12 87.624611 14.231146 22.918642 -140.500656 -54.097115 44.955364 91.683487
[R_front_hand02_01]
11 89.356956 14.367283 -19.491137 142.634140 53.329124 49.315857 92.579636
12 89.356956 14.367283 -19.491137 141.255966 52.517570 47.591045 92.579636
[R_front_hand03_01]
11 87.286232 -22.307278 -0.143439 0.092230 -0.445770 -66.286453 90.091743
12 87.286232 -22.307278 -0.143439 0.080269 -0.445286 -64.968231 90.091743
[R_front_hand01_02]
11 71.020905 0.000060 0.000119 0.002323 -0.000334 106.381714 71.020905
12 71.020905 0.000060 0.000119 0.002323 -0.000334 106.381714 71.020905
[R_front_hand02_02]
11 71.020844 -0.000030 -0.000119 0.002323 -0.000334 106.381714 71.020836
12 71.020844 -0.000030 -0.000119 0.002323 -0.000334 106.381714 71.020836
[R_front_hand03_02]
11 71.020905 0.000000 0.000030 0.002323 -0.000334 106.381714 71.020905
12 71.020905 0.000000 0.000030 0.002323 -0.000334 106.381714 71.020905
[null_rope01_connect]
11 328.732483 0.000000 -0.000238 -139.598495 -50.684460 160.515320 328.732483
12 328.732483 0.000000 -0.000238 -142.116837 -44.248226 163.285217 328.732483
[Rope1_Seg01]
11 -0.000010 0.000029 0.000038 -130.528702 53.133656 -119.430466 0.000049
12 -0.000010 0.000028 0.000042 -165.616974 46.475174 -135.123032 0.000051
[Rope1_Seg02]
11 139.999863 -0.000179 0.000000 -4.682041 2.809588 0.510649 139.999863
12 139.999863 -0.000179 0.000000 -6.217308 -0.253308 5.436014 139.999863
[Rope1_Seg03]
11 139.999924 0.000060 -0.000060 -16.008097 7.946866 2.217043 139.999924
12 139.999924 0.000060 -0.000060 -16.345909 2.259703 19.074520 139.999924
[Rope1_Seg04]
11 139.999924 -0.000060 -0.000119 -7.504985 3.036492 1.676688 139.999924
12 139.999924 -0.000060 -0.000119 29.894287 -10.059298 -22.928097 139.999924
[Rope1_Seg05]
11 139.999832 0.000119 -0.000060 30.388697 -11.366022 -9.729238 139.999832
12 139.999832 0.000119 -0.000060 17.544449 -9.415900 -10.425718 139.999832
[Rope1_Seg06]
11 139.999954 0.000119 -0.000060 4.799233 -3.166147 -0.606438 139.999954
12 139.999954 0.000119 -0.000060 5.215230 -4.204573 -2.146892 139.999954
[Rope1_Seg07]
11 139.999985 0.000060 0.000000 2.433459 -1.799967 -0.189943 139.999985
12 139.999985 0.000060 0.000000 2.442633 -2.195922 -0.881336 139.999985
[Rope1_Seg09]
11 121.602913 0.000119 -0.000089 -89.793175 -1.359789 0.847147 121.602913
12 121.602913 0.000119 -0.000089 -89.793175 -1.359789 0.847147 121.602913
[L_mid_hand01]
11 103.859421 1.038730 8.195221 110.016693 -43.583393 -14.630751 104.187431
12 103.859421 1.038730 8.195221 111.216125 -46.770245 -16.325298 104.187431
[L_mid_hand02]
11 105.572853 -4.139662 -10.864139 -148.402451 33.171711 -41.059566 106.211075
12 105.572853 -4.139662 -10.864139 -150.384232 34.904911 -44.592556 106.211075
[L_mid_hand03]
11 104.641464 17.579376 -3.913581 -13.575850 13.082139 47.042397 106.179977
12 104.641464 17.579376 -3.913581 -12.781249 13.855401 50.452690 106.179977
[null_rope02_connect]
11 328.732849 0.000179 -0.000119 5.667734 56.723885 165.382629 328.732849
12 328.732849 0.000179 -0.000119 4.446355 61.853592 163.609406 328.732849
[Rope2_Seg01]
11 0.000048 0.000114 0.000000 84.631676 26.663033 -159.368973 0.000124
12 0.000049 0.000111 0.000000 91.625542 43.308357 -145.814880 0.000121
[Rope2_Seg02]
11 139.999741 -0.000060 -0.000119 -2.472641 9.805441 -16.285147 139.999756
12 139.999741 -0.000060 -0.000119 1.256984 4.060329 -14.763012 139.999756
[Rope2_Seg03]
11 140.000107 0.000030 0.000000 1.126432 10.961122 -21.922491 140.000107
12 140.000107 0.000030 0.000000 4.160608 3.490292 -16.731808 140.000107
[Rope2_Seg04]
11 139.999802 0.000000 -0.000060 3.747386 5.766685 -12.010965 139.999802
12 139.999802 0.000000 -0.000060 -0.808076 0.080966 2.127920 139.999802
[Rope2_Seg05]
11 139.999985 -0.000060 0.000119 -8.637226 0.670594 19.332184 139.999985
12 139.999985 -0.000060 0.000119 -7.149264 -2.799744 30.385098 139.999985
[Rope2_Seg06]
11 139.999893 -0.000030 -0.000119 -7.360543 -5.048553 32.320534 139.999893
12 139.999893 -0.000030 -0.000119 -0.118193 -5.624358 28.050512 139.999893
[Rope2_Seg07]
11 139.999893 0.000060 -0.000060 -0.033782 -3.183974 14.119146 139.999893
12 139.999893 0.000060 -0.000060 2.949933 -2.543096 13.970673 139.999893
[Rope2_Seg09]
11 121.338966 0.000089 -0.000060 33.793236 -1.359788 -0.847141 121.338966
12 121.338966 0.000089 -0.000060 33.793236 -1.359788 -0.847141 121.338966
[R_mid_hand01]
11 104.680779 11.144459 -10.335981 -36.116535 33.174706 39.598408 105.778534
12 104.680779 11.144459 -10.335981 -36.922554 32.243565 38.107742 105.778534
[R_mid_hand02]
11 104.070427 2.443552 8.231699 69.680679 -44.419243 15.065832 104.424065
12 104.070427 2.443552 8.231699 70.193451 -42.958271 14.324638 104.424065
[R_mid_hand03]
11 106.028137 -11.221827 -5.996406 -170.354065 12.593579 -49.350628 106.788818
12 106.028137 -11.221827 -5.996406 -170.013962 12.325404 -47.779564 106.788818
[spine02]
11 129.756927 0.001550 0.000119 0.530191 -4.024908 -15.374445 129.756927
12 129.756927 0.001550 0.000119 0.537560 -4.023919 -15.444612 129.756927
[spine03]
11 78.614052 0.081749 -4.898925 1.995888 3.780540 17.997084 78.766579
12 78.614044 0.081745 -4.898916 1.999596 3.776836 18.047235 78.766579
[pelvis]
11 169.435242 0.051022 0.000000 -0.070208 -0.177785 17.188129 169.435257
12 169.435242 0.051022 0.000000 -0.070348 -0.177729 17.278177 169.435257
[null_rope03_connect]
11 -1.257226 -2.466202 137.391083 -141.135544 -58.836246 -169.063828 137.418976
12 -1.257226 -2.466202 137.391083 -140.877625 -56.948963 -169.044769 137.418976
[null_rope04_connect]
11 -1.259640 -2.480268 -137.844437 -141.135544 -58.836246 -169.063828 137.872513
12 -1.259640 -2.480268 -137.844437 -140.877625 -56.948963 -169.044769 137.872513
[Rope3_Seg01]
11 -0.000014 -0.000210 -0.000153 -176.652039 24.820433 -153.271393 0.000260
12 -0.000014 -0.000223 -0.000153 -173.750412 25.218765 -151.064590 0.000271
[Rope3_Seg02]
11 139.999924 -0.000119 0.000060 -8.595816 -6.691291 -3.574522 139.999924
12 139.999924 -0.000119 0.000060 -8.020988 -6.078942 -2.799265 139.999924
[Rope3_Seg03]
11 139.999924 -0.000119 0.000119 -4.178154 -5.815798 -4.365967 139.999924
12 139.999924 -0.000119 0.000119 -4.369339 -5.274943 -3.414364 139.999924
[Rope3_Seg04]
11 139.999924 0.000119 0.000000 -3.665842 -7.772990 -6.160367 139.999924
12 139.999924 0.000119 0.000000 -3.843784 -6.906181 -4.993281 139.999924
[Rope3_Seg05]
11 139.999924 -0.000238 0.000060 -1.279968 -5.033212 -4.770507 139.999924
12 139.999924 -0.000238 0.000060 -1.204877 -3.609698 -3.182210 139.999924
[Rope3_Seg06]
11 139.999893 -0.000119 -0.000060 1.610563 1.523688 0.102220 139.999893
12 139.999893 -0.000119 -0.000060 1.393505 1.404488 0.562849 139.999893
[Rope3_Seg07]
11 139.999771 0.000060 -0.000119 5.791211 7.743985 4.300844 139.999771
12 139.999771 0.000060 -0.000119 4.244779 5.406959 3.299186 139.999771
[Rope3_Seg08]
11 139.999985 -0.000060 0.000000 5.547141 5.321016 1.969796 139.999985
12 139.999985 -0.000060 0.000000 3.383729 3.144105 1.341900 139.999985
[Rope3_Seg09]
11 90.185997 -0.000179 -0.000060 89.793228 -1.359877 -0.847183 90.185997
12 90.185997 -0.000179 -0.000060 89.793228 -1.359877 -0.847183 90.185997
[R_rear_hand01]
11 103.366196 -6.073594 -10.757982 -165.009155 19.819437 -41.100956 104.101845
12 103.366196 -6.073594 -10.757982 -164.755127 19.627697 -40.352161 104.101845
[R_rear_hand02]
11 100.509819 12.039542 -7.992327 -30.502344 25.155792 38.836960 101.543350
12 100.509819 12.039542 -7.992327 -30.792652 24.782450 38.141541 101.543350
[R_rear_hand03]
11 101.539970 5.215704 5.435467 82.364601 -41.773376 8.967985 101.819031
12 101.539970 5.215704 5.435467 82.448349 -41.048256 8.840383 101.819031
[Rope4_Seg01]
11 0.000000 -0.000334 -0.000191 45.770645 45.971149 -113.764923 0.000384
12 0.000000 -0.000363 -0.000195 41.007584 39.542259 -120.752281 0.000412
[Rope4_Seg02]
11 139.999985 0.000060 0.000119 0.944919 -15.188192 -6.169536 139.999985
12 139.999985 0.000060 0.000119 0.480889 -11.744492 -7.700136 139.999985
[Rope4_Seg03]
11 139.999924 0.000000 -0.000238 0.536442 -9.264271 -3.719230 139.999924
12 139.999924 0.000000 -0.000238 0.058907 -7.400057 -4.180996 139.999924
[Rope4_Seg04]
11 139.999985 0.000000 0.000119 0.480248 -7.476549 -2.998855 139.999985
12 139.999985 0.000000 0.000119 0.038267 -4.841921 -2.504910 139.999985
[Rope4_Seg05]
11 139.999802 -0.000060 -0.000119 0.120873 -0.448257 -0.132344 139.999802
12 139.999802 -0.000060 -0.000119 -0.202375 0.693699 -0.207290 139.999802
[Rope4_Seg06]
11 139.999924 0.000000 0.000060 0.087677 4.438218 1.836413 139.999924
12 139.999924 0.000000 0.000060 -0.310315 5.626826 1.511568 139.999924
[Rope4_Seg07]
11 139.999802 0.000000 0.000000 0.628384 13.655233 5.687854 139.999802
12 139.999802 0.000000 0.000000 0.132788 15.142142 4.665524 139.999802
[Rope4_Seg08]
11 139.999924 0.000000 0.000119 -0.956659 12.036121 5.024985 139.999924
12 139.999924 0.000000 0.000119 -1.056143 13.475294 3.951623 139.999924
[Rope4_Seg09]
11 90.185791 0.000060 0.000060 -135.617828 2.228885 0.850567 90.185791
12 90.185791 0.000060 0.000060 -135.617828 2.228885 0.850567 90.185791
[L_rear_hand01]
11 101.696655 -8.392275 -7.654577 -28.015862 -27.942142 135.607529 102.329041
12 101.696655 -8.392275 -7.654577 -26.077669 -29.734318 131.595917 102.329041
[L_rear_hand02]
11 102.726799 -1.568258 5.773216 81.577332 47.415264 169.913025 102.900848
12 102.726799 -1.568258 5.773216 80.880585 51.310986 168.994995 102.900848
[L_rear_hand03]
11 104.552910 9.721220 -10.420293 -167.078079 -21.194330 -132.993347 105.519653
12 104.552910 9.721220 -10.420293 -168.606277 -22.023737 -128.845825 105.519653
